<svg xmlns="http://www.w3.org/2000/svg" width="800" height="520" viewBox="0 0 800 520">
  <defs>
    <linearGradient id="sky" x1="0" y1="0" x2="0" y2="1">
      <stop offset="0" stop-color="#dbe4ef"/>
      <stop offset="1" stop-color="#eef3f8"/>
    </linearGradient>
    <linearGradient id="facade" x1="0" y1="0" x2="0.6" y2="1">
      <stop offset="0" stop-color="rgb(202, 231, 229)"/>
      <stop offset="1" stop-color="rgb(139, 204, 198)"/>
    </linearGradient>
    <filter id="blur" x="-40%" y="-40%" width="180%" height="180%">
      <feGaussianBlur stdDeviation="6"/>
    </filter>
  </defs>

  <rect width="800" height="520" fill="url(#sky)"/>
  <rect x="0" y="478" width="800" height="42" fill="#d7e2cf"/>

  <rect x="160.1176470588235" y="162" width="479.764705882353" height="346" rx="10" fill="rgba(30,41,59,0.22)" filter="url(#blur)"/>

  <rect x="174.1" y="150.0" width="451.8" height="320.0" rx="8" fill="url(#facade)"/>
  <rect x="174.1" y="150.0" width="451.8" height="10" rx="4" fill="rgba(255,255,255,0.55)"/>

  <rect x="188.1" y="162.0" width="48.5" height="65.0" rx="3" fill="#8b95a3" opacity="0.75"/>
  <rect x="250.7" y="162.0" width="48.5" height="65.0" rx="3" fill="#8b95a3" opacity="0.75"/>
  <rect x="313.2" y="162.0" width="48.5" height="65.0" rx="3" fill="#8b95a3" opacity="0.75"/>
  <rect x="375.7" y="162.0" width="48.5" height="65.0" rx="3" fill="#8b95a3" opacity="0.75"/>
  <rect x="438.3" y="162.0" width="48.5" height="65.0" rx="3" fill="#8b95a3" opacity="0.75"/>
  <rect x="500.8" y="162.0" width="48.5" height="65.0" rx="3" fill="#8b95a3" opacity="0.75"/>
  <rect x="563.3" y="162.0" width="48.5" height="65.0" rx="3" fill="#8b95a3" opacity="0.75"/>
  <rect x="188.1" y="239.0" width="48.5" height="65.0" rx="3" fill="#0d9488" opacity="0.9"/>
  <rect x="250.7" y="239.0" width="48.5" height="65.0" rx="3" fill="#0d9488" opacity="0.9"/>
  <rect x="313.2" y="239.0" width="48.5" height="65.0" rx="3" fill="#0d9488" opacity="0.9"/>
  <rect x="375.7" y="239.0" width="48.5" height="65.0" rx="3" fill="#8b95a3" opacity="0.75"/>
  <rect x="438.3" y="239.0" width="48.5" height="65.0" rx="3" fill="#0d9488" opacity="0.9"/>
  <rect x="500.8" y="239.0" width="48.5" height="65.0" rx="3" fill="#0d9488" opacity="0.9"/>
  <rect x="563.3" y="239.0" width="48.5" height="65.0" rx="3" fill="#8b95a3" opacity="0.75"/>
  <rect x="188.1" y="316.0" width="48.5" height="65.0" rx="3" fill="#8b95a3" opacity="0.75"/>
  <rect x="250.7" y="316.0" width="48.5" height="65.0" rx="3" fill="#0d9488" opacity="0.9"/>
  <rect x="313.2" y="316.0" width="48.5" height="65.0" rx="3" fill="#8b95a3" opacity="0.75"/>
  <rect x="375.7" y="316.0" width="48.5" height="65.0" rx="3" fill="#8b95a3" opacity="0.75"/>
  <rect x="438.3" y="316.0" width="48.5" height="65.0" rx="3" fill="#0d9488" opacity="0.9"/>
  <rect x="500.8" y="316.0" width="48.5" height="65.0" rx="3" fill="#8b95a3" opacity="0.75"/>
  <rect x="563.3" y="316.0" width="48.5" height="65.0" rx="3" fill="#0d9488" opacity="0.9"/>
  <rect x="188.1" y="393.0" width="48.5" height="65.0" rx="3" fill="#8b95a3" opacity="0.75"/>
  <rect x="250.7" y="393.0" width="48.5" height="65.0" rx="3" fill="#8b95a3" opacity="0.75"/>
  <rect x="313.2" y="393.0" width="48.5" height="65.0" rx="3" fill="#8b95a3" opacity="0.75"/>
  <rect x="375.7" y="393.0" width="48.5" height="65.0" rx="3" fill="#8b95a3" opacity="0.75"/>
  <rect x="438.3" y="393.0" width="48.5" height="65.0" rx="3" fill="#0d9488" opacity="0.9"/>
  <rect x="500.8" y="393.0" width="48.5" height="65.0" rx="3" fill="#8b95a3" opacity="0.75"/>
  <rect x="563.3" y="393.0" width="48.5" height="65.0" rx="3" fill="#8b95a3" opacity="0.75"/>

  <rect x="368.0" y="384.0" width="64.0" height="86.0" rx="4" fill="rgba(30,41,59,0.55)"/>
  <rect x="373.0" y="390.0" width="54.0" height="74.0" rx="3" fill="rgba(255,255,255,0.28)"/>

  <rect x="190.0" y="448" width="420" height="52" rx="12" fill="rgba(15,23,42,0.62)"/>
  <text x="400" y="480" text-anchor="middle" font-size="25" font-weight="700" font-family="system-ui, sans-serif" fill="#ffffff">Admission Block</text>

  <g transform="translate(672 18)">
    <rect width="110" height="28" rx="14" fill="rgba(15,23,42,0.45)"/>
    <text x="55" y="19" text-anchor="middle" font-size="13" font-weight="600" font-family="ui-monospace, monospace" fill="#ffffff" opacity="0.85">SAMPLE 1/3</text>
  </g>
</svg>
