<svg xmlns="http://www.w3.org/2000/svg" width="800" height="520" viewBox="0 0 800 520">
  <defs>
    <linearGradient id="sky" x1="0" y1="0" x2="0" y2="1">
      <stop offset="0" stop-color="#f0dfc8"/>
      <stop offset="1" stop-color="#f9edda"/>
    </linearGradient>
    <linearGradient id="facade" x1="0" y1="0" x2="0.6" y2="1">
      <stop offset="0" stop-color="rgb(210, 236, 228)"/>
      <stop offset="1" stop-color="rgb(145, 209, 189)"/>
    </linearGradient>
    <filter id="blur" x="-40%" y="-40%" width="180%" height="180%">
      <feGaussianBlur stdDeviation="6"/>
    </filter>
  </defs>

  <rect width="800" height="520" fill="url(#sky)"/>
  <rect x="0" y="478" width="800" height="42" fill="#d7e2cf"/>

  <rect x="177.51515151515153" y="162" width="444.96969696969694" height="346" rx="10" fill="rgba(30,41,59,0.22)" filter="url(#blur)"/>

  <rect x="191.5" y="150.0" width="417.0" height="320.0" rx="8" fill="url(#facade)"/>
  <rect x="191.5" y="150.0" width="417.0" height="10" rx="4" fill="rgba(255,255,255,0.55)"/>

  <rect x="205.5" y="162.0" width="66.6" height="49.6" rx="3" fill="#8b95a3" opacity="0.75"/>
  <rect x="286.1" y="162.0" width="66.6" height="49.6" rx="3" fill="#f5a623" opacity="0.9"/>
  <rect x="366.7" y="162.0" width="66.6" height="49.6" rx="3" fill="#f5a623" opacity="0.9"/>
  <rect x="447.3" y="162.0" width="66.6" height="49.6" rx="3" fill="#f5a623" opacity="0.9"/>
  <rect x="527.9" y="162.0" width="66.6" height="49.6" rx="3" fill="#f5a623" opacity="0.9"/>
  <rect x="205.5" y="223.6" width="66.6" height="49.6" rx="3" fill="#f5a623" opacity="0.9"/>
  <rect x="286.1" y="223.6" width="66.6" height="49.6" rx="3" fill="#f5a623" opacity="0.9"/>
  <rect x="366.7" y="223.6" width="66.6" height="49.6" rx="3" fill="#f5a623" opacity="0.9"/>
  <rect x="447.3" y="223.6" width="66.6" height="49.6" rx="3" fill="#8b95a3" opacity="0.75"/>
  <rect x="527.9" y="223.6" width="66.6" height="49.6" rx="3" fill="#f5a623" opacity="0.9"/>
  <rect x="205.5" y="285.2" width="66.6" height="49.6" rx="3" fill="#8b95a3" opacity="0.75"/>
  <rect x="286.1" y="285.2" width="66.6" height="49.6" rx="3" fill="#f5a623" opacity="0.9"/>
  <rect x="366.7" y="285.2" width="66.6" height="49.6" rx="3" fill="#f5a623" opacity="0.9"/>
  <rect x="447.3" y="285.2" width="66.6" height="49.6" rx="3" fill="#8b95a3" opacity="0.75"/>
  <rect x="527.9" y="285.2" width="66.6" height="49.6" rx="3" fill="#f5a623" opacity="0.9"/>
  <rect x="205.5" y="346.8" width="66.6" height="49.6" rx="3" fill="#f5a623" opacity="0.9"/>
  <rect x="286.1" y="346.8" width="66.6" height="49.6" rx="3" fill="#8b95a3" opacity="0.75"/>
  <rect x="366.7" y="346.8" width="66.6" height="49.6" rx="3" fill="#f5a623" opacity="0.9"/>
  <rect x="447.3" y="346.8" width="66.6" height="49.6" rx="3" fill="#8b95a3" opacity="0.75"/>
  <rect x="527.9" y="346.8" width="66.6" height="49.6" rx="3" fill="#f5a623" opacity="0.9"/>
  <rect x="205.5" y="408.4" width="66.6" height="49.6" rx="3" fill="#f5a623" opacity="0.9"/>
  <rect x="286.1" y="408.4" width="66.6" height="49.6" rx="3" fill="#f5a623" opacity="0.9"/>
  <rect x="366.7" y="408.4" width="66.6" height="49.6" rx="3" fill="#f5a623" opacity="0.9"/>
  <rect x="447.3" y="408.4" width="66.6" height="49.6" rx="3" fill="#f5a623" opacity="0.9"/>
  <rect x="527.9" y="408.4" width="66.6" height="49.6" rx="3" fill="#f5a623" opacity="0.9"/>

  <rect x="368.0" y="384.0" width="64.0" height="86.0" rx="4" fill="rgba(30,41,59,0.55)"/>
  <rect x="373.0" y="390.0" width="54.0" height="74.0" rx="3" fill="rgba(255,255,255,0.28)"/>

  <rect x="190.0" y="448" width="420" height="52" rx="12" fill="rgba(15,23,42,0.62)"/>
  <text x="400" y="480" text-anchor="middle" font-size="25" font-weight="700" font-family="system-ui, sans-serif" fill="#ffffff">Department Offices</text>

  <g transform="translate(672 18)">
    <rect width="110" height="28" rx="14" fill="rgba(15,23,42,0.45)"/>
    <text x="55" y="19" text-anchor="middle" font-size="13" font-weight="600" font-family="ui-monospace, monospace" fill="#ffffff" opacity="0.85">SAMPLE 2/3</text>
  </g>
</svg>
